<?xml version="1.0" ?><svg xmlns="http://www.w3.org/2000/svg" xmlns:xlink="http://www.w3.org/1999/xlink" version="1.1" viewBox="0 0 512 512" style="enable-background:new 0 0 512 512;" xml:space="preserve"><g id="_x30_9_x2C__List_x2C__survey_x2C__task_x2C__check_list_x2C__verification_x2C__criteria"><g><g><path style="fill:#1784FF;" d="M135.464,278.442c4.423,3.971,11.315,3.224,14.788-1.592l28.857-40     c3.231-4.479,2.221-10.729-2.259-13.96c-4.48-3.233-10.729-2.219-13.96,2.259l-22.349,30.978l-2.863-2.569     c-4.108-3.688-10.432-3.349-14.121,0.764c-3.688,4.109-3.347,10.433,0.764,14.121L135.464,278.442z"/><path style="fill:#1784FF;" d="M381,221H221c-5.522,0-10,4.478-10,10v40c0,5.522,4.478,10,10,10h160c5.522,0,10-4.478,10-10v-40     C391,225.478,386.522,221,381,221z M371,261H231v-20h140V261z"/><path style="fill:#1784FF;" d="M381,311H221c-5.522,0-10,4.478-10,10v40c0,5.522,4.478,10,10,10h160c5.522,0,10-4.478,10-10v-40     C391,315.478,386.522,311,381,311z M371,351H231v-20h140V351z"/><path style="fill:#1784FF;" d="M178.071,313.929c-3.906-3.904-10.236-3.904-14.143,0L151,326.857l-12.929-12.929     c-3.906-3.904-10.236-3.904-14.143,0c-3.905,3.905-3.905,10.237,0,14.143L136.857,341l-12.929,12.929     c-3.905,3.905-3.905,10.237,0,14.143c3.906,3.904,10.235,3.905,14.143,0L151,355.143l12.929,12.929     c3.906,3.904,10.235,3.905,14.143,0c3.905-3.905,3.905-10.237,0-14.143L165.143,341l12.929-12.929     C181.977,324.166,181.977,317.834,178.071,313.929z"/><path style="fill:#1784FF;" d="M176.851,402.891c-4.48-3.233-10.729-2.22-13.96,2.259l-22.349,30.978l-2.863-2.569     c-4.108-3.688-10.432-3.349-14.121,0.764c-3.688,4.109-3.347,10.433,0.764,14.121l11.143,10     c4.423,3.971,11.315,3.224,14.788-1.592l28.857-40C182.341,412.372,181.33,406.121,176.851,402.891z"/><path style="fill:#1784FF;" d="M381,401H221c-5.522,0-10,4.478-10,10v40c0,5.522,4.478,10,10,10h160c5.522,0,10-4.478,10-10v-40     C391,405.478,386.522,401,381,401z M371,441H231v-20h140V441z"/><path style="fill:#1784FF;" d="M381,131H131c-5.522,0-10,4.478-10,10v40c0,5.522,4.478,10,10,10h250c5.522,0,10-4.478,10-10v-40     C391,135.478,386.522,131,381,131z M371,171H141v-20h230V171z"/></g><g><path style="fill:#142943;" d="M401,61h-41.276c-4.468-17.235-20.154-30-38.766-30h-22.537C292.166,13.411,275.242,1,256,1     s-36.166,12.411-42.421,30h-22.537c-18.612,0-34.298,12.765-38.766,30H111c-22.056,0-40,17.944-40,40v370     c0,22.056,17.944,40,40,40h290c22.056,0,40-17.944,40-40V101C441,78.944,423.056,61,401,61z M191.042,51h30.319     c4.976,0,9.194-3.658,9.899-8.584C233.008,30.207,243.644,21,256,21s22.992,9.207,24.739,21.416     c0.705,4.926,4.924,8.584,9.899,8.584h30.319C332.009,51,341,59.991,341,71.042V81H171v-9.958C171,59.991,179.991,51,191.042,51z      M421,471c0,11.028-8.972,20-20,20H111c-11.028,0-20-8.972-20-20V101c0-11.028,8.972-20,20-20h40v10c0,5.522,4.478,10,10,10h190     c5.522,0,10-4.478,10-10V81h40c11.028,0,20,8.972,20,20V471z"/></g></g></g><g id="Layer_1"/></svg>